<svg xmlns="http://www.w3.org/2000/svg" viewBox="0 0 64 64" fill="none">
  <defs>
    <linearGradient id="divineGold" x1="8" y1="6" x2="56" y2="58" gradientUnits="userSpaceOnUse">
      <stop offset="0" stop-color="#f2d38a"/>
      <stop offset="0.5" stop-color="#cda349"/>
      <stop offset="1" stop-color="#8f6a24"/>
    </linearGradient>
  </defs>
  <path d="M32 6c-1.6 0-2.9 1.1-3.6 2.7L24.8 17c-3.1-2.2-6.8-3.6-10.7-3.9-1.3-.1-2.3 1.2-1.8 2.4l3.9 9.4C13.4 28.6 12 32.6 12 37c0 11.6 8.9 21 20 21s20-9.4 20-21c0-4.4-1.4-8.4-3.7-11.1l3.9-9.4c.5-1.2-.5-2.5-1.8-2.4-3.9.3-7.6 1.7-10.7 3.9l-3.6-8.3C34.9 7.1 33.6 6 32 6z" fill="url(#divineGold)"/>
  <path d="M23 32.5c0-1.9 1.4-3.5 3-3.5s3 1.6 3 3.5-1.4 3.5-3 3.5-3-1.6-3-3.5zM35 32.5c0-1.9 1.4-3.5 3-3.5s3 1.6 3 3.5-1.4 3.5-3 3.5-3-1.6-3-3.5z" fill="#06120d"/>
  <path d="M28 40c1.3 1.2 2.7 1.8 4 1.8s2.7-.6 4-1.8" stroke="#06120d" stroke-width="1.6" stroke-linecap="round"/>
  <path d="M32 36.5v2.2" stroke="#06120d" stroke-width="1.6" stroke-linecap="round"/>
</svg>
