<?xml version="1.0" encoding="UTF-8"?>
<svg xmlns="http://www.w3.org/2000/svg" width="1024" height="761" viewBox="0 0 1024 761" role="img" aria-label="Vectorized cat illustration">
  <rect width="100%" height="100%" fill="#102016"/>
  <path d="
    M 921.0 638.0 L 917.0 647.0 L 907.0 656.0 L 902.0 657.0 L 901.0 659.0 L 904.0 659.0 L 911.0 663.0 L 916.0 668.0 L 920.0 675.0 L 920.0 677.0 L 922.0 678.0 L 922.0 675.0 L 926.0 668.0 L 934.0 661.0 L 938.0 659.0 L 941.0 659.0 L 941.0 658.0 L 931.0 653.0 L 926.0 648.0 Z
    M 600.0 600.0 L 588.0 631.0 L 581.0 644.0 L 578.0 647.0 L 577.0 645.0 L 579.0 643.0 L 580.0 638.0 L 584.0 630.0 L 587.0 614.0 L 581.0 633.0 L 573.0 651.0 L 577.0 646.0 L 578.0 648.0 L 580.0 647.0 L 591.0 630.0 L 592.0 625.0 L 597.0 614.0 Z
    M 516.0 559.0 L 525.0 574.0 L 542.0 595.0 L 553.0 616.0 L 551.0 612.0 L 551.0 609.0 L 547.0 602.0 L 545.0 595.0 L 539.0 585.0 L 539.0 583.0 L 538.0 582.0 L 537.0 584.0 L 532.0 579.0 Z
    M 537.0 558.0 L 552.0 578.0 L 564.0 603.0 L 566.0 616.0 L 567.0 616.0 L 564.0 599.0 L 556.0 580.0 L 549.0 570.0 Z
    M 564.0 556.0 L 570.0 566.0 L 575.0 583.0 L 575.0 588.0 L 576.0 589.0 L 576.0 616.0 L 578.0 606.0 L 578.0 588.0 L 574.0 572.0 L 568.0 560.0 Z
    M 484.0 550.0 L 498.0 568.0 L 504.0 580.0 L 505.0 580.0 L 503.0 573.0 L 499.0 566.0 Z
    M 472.0 548.0 L 481.0 558.0 L 494.0 577.0 L 495.0 581.0 L 497.0 582.0 L 493.0 572.0 L 481.0 555.0 Z
    M 621.0 542.0 L 620.0 566.0 L 617.0 578.0 L 610.0 593.0 L 614.0 588.0 L 621.0 571.0 L 622.0 556.0 L 623.0 555.0 Z
    M 266.0 533.0 L 286.0 538.0 L 300.0 539.0 L 319.0 535.0 L 330.0 530.0 L 332.0 528.0 L 333.0 531.0 L 331.0 535.0 L 320.0 547.0 L 302.0 557.0 L 313.0 556.0 L 323.0 553.0 L 334.0 548.0 L 345.0 539.0 L 346.0 540.0 L 345.0 542.0 L 345.0 562.0 L 350.0 579.0 L 353.0 584.0 L 351.0 576.0 L 351.0 555.0 L 354.0 546.0 L 356.0 553.0 L 357.0 566.0 L 362.0 583.0 L 368.0 595.0 L 374.0 604.0 L 379.0 609.0 L 377.0 605.0 L 376.0 596.0 L 374.0 591.0 L 374.0 584.0 L 373.0 583.0 L 373.0 571.0 L 377.0 556.0 L 373.0 562.0 L 371.0 570.0 L 371.0 588.0 L 372.0 589.0 L 371.0 593.0 L 365.0 582.0 L 359.0 562.0 L 359.0 553.0 L 358.0 552.0 L 359.0 529.0 L 351.0 546.0 L 348.0 557.0 L 347.0 556.0 L 347.0 546.0 L 351.0 528.0 L 347.0 534.0 L 340.0 541.0 L 331.0 547.0 L 324.0 550.0 L 322.0 549.0 L 331.0 539.0 L 335.0 532.0 L 337.0 524.0 L 339.0 521.0 L 322.0 531.0 L 310.0 535.0 L 306.0 534.0 L 316.0 529.0 L 322.0 522.0 L 313.0 529.0 L 298.0 534.0 Z
    M 317.0 519.0 L 299.0 523.0 L 278.0 523.0 L 272.0 521.0 L 272.0 522.0 L 282.0 525.0 L 298.0 525.0 L 312.0 522.0 L 317.0 520.0 Z
    M 419.0 518.0 L 418.0 523.0 L 421.0 535.0 L 430.0 560.0 L 429.0 552.0 L 424.0 539.0 Z
    M 563.0 515.0 L 568.0 521.0 L 585.0 533.0 Z
    M 398.0 507.0 L 396.0 510.0 L 393.0 523.0 L 393.0 542.0 L 397.0 560.0 L 395.0 550.0 L 394.0 529.0 L 395.0 528.0 L 395.0 519.0 Z
    M 387.0 510.0 L 383.0 530.0 L 383.0 541.0 L 384.0 542.0 L 385.0 554.0 L 390.0 567.0 L 399.0 581.0 L 404.0 592.0 L 407.0 602.0 L 408.0 612.0 L 409.0 613.0 L 411.0 605.0 L 412.0 584.0 L 413.0 583.0 L 426.0 603.0 L 435.0 613.0 L 454.0 627.0 L 464.0 632.0 L 454.0 618.0 L 447.0 604.0 L 443.0 592.0 L 444.0 588.0 L 455.0 602.0 L 461.0 607.0 L 493.0 625.0 L 501.0 633.0 L 506.0 641.0 L 511.0 658.0 L 512.0 658.0 L 511.0 656.0 L 511.0 646.0 L 509.0 637.0 L 503.0 623.0 L 499.0 618.0 L 501.0 617.0 L 515.0 627.0 L 522.0 634.0 L 529.0 644.0 L 535.0 659.0 L 536.0 670.0 L 537.0 670.0 L 540.0 658.0 L 540.0 639.0 L 537.0 627.0 L 533.0 617.0 L 531.0 615.0 L 532.0 613.0 L 542.0 624.0 L 548.0 633.0 L 554.0 647.0 L 555.0 662.0 L 553.0 672.0 L 550.0 679.0 L 552.0 678.0 L 555.0 673.0 L 556.0 674.0 L 565.0 665.0 L 587.0 649.0 L 603.0 634.0 L 615.0 617.0 L 627.0 593.0 L 629.0 597.0 L 627.0 613.0 L 621.0 626.0 L 614.0 636.0 L 624.0 626.0 L 632.0 612.0 L 637.0 595.0 L 637.0 579.0 L 636.0 580.0 L 635.0 594.0 L 632.0 602.0 L 631.0 601.0 L 632.0 568.0 L 631.0 567.0 L 630.0 554.0 L 628.0 551.0 L 629.0 553.0 L 629.0 562.0 L 630.0 563.0 L 629.0 579.0 L 624.0 590.0 L 623.0 595.0 L 612.0 616.0 L 602.0 630.0 L 581.0 651.0 L 564.0 664.0 L 557.0 672.0 L 556.0 670.0 L 562.0 659.0 L 567.0 644.0 L 568.0 627.0 L 567.0 627.0 L 567.0 632.0 L 566.0 633.0 L 565.0 646.0 L 559.0 661.0 L 558.0 660.0 L 557.0 638.0 L 551.0 623.0 L 545.0 614.0 L 533.0 601.0 L 547.0 621.0 L 551.0 629.0 L 550.0 631.0 L 543.0 621.0 L 533.0 611.0 L 526.0 606.0 L 513.0 593.0 L 509.0 591.0 L 519.0 601.0 L 531.0 620.0 L 536.0 634.0 L 536.0 639.0 L 537.0 640.0 L 537.0 646.0 L 536.0 647.0 L 533.0 635.0 L 529.0 627.0 L 523.0 619.0 L 511.0 608.0 L 495.0 599.0 L 487.0 593.0 L 469.0 574.0 L 460.0 557.0 L 456.0 540.0 L 456.0 547.0 L 461.0 564.0 L 473.0 583.0 L 487.0 597.0 L 516.0 615.0 L 526.0 627.0 L 529.0 632.0 L 531.0 639.0 L 530.0 640.0 L 522.0 629.0 L 514.0 622.0 L 494.0 610.0 L 478.0 598.0 L 468.0 588.0 L 463.0 580.0 L 467.0 589.0 L 471.0 594.0 L 495.0 615.0 L 502.0 628.0 L 501.0 629.0 L 497.0 624.0 L 479.0 613.0 L 480.0 612.0 L 470.0 604.0 L 455.0 588.0 L 461.0 598.0 L 471.0 607.0 L 477.0 610.0 L 474.0 611.0 L 457.0 600.0 L 448.0 590.0 L 441.0 577.0 L 440.0 562.0 L 439.0 561.0 L 438.0 580.0 L 439.0 581.0 L 440.0 592.0 L 444.0 603.0 L 443.0 606.0 L 441.0 604.0 L 432.0 584.0 L 429.0 573.0 L 429.0 566.0 L 428.0 570.0 L 432.0 591.0 L 440.0 607.0 L 448.0 617.0 L 446.0 618.0 L 443.0 616.0 L 430.0 603.0 L 415.0 580.0 L 406.0 559.0 L 404.0 543.0 L 403.0 543.0 L 403.0 556.0 L 408.0 569.0 L 408.0 575.0 L 409.0 576.0 L 409.0 591.0 L 407.0 593.0 L 404.0 584.0 L 394.0 568.0 L 387.0 550.0 L 386.0 545.0 L 386.0 521.0 L 389.0 507.0 Z
    M 555.0 672.0 L 556.0 671.0 L 557.0 672.0 L 556.0 673.0 Z
    M 530.0 641.0 L 531.0 640.0 L 532.0 641.0 L 531.0 642.0 Z
    M 552.0 637.0 L 553.0 636.0 L 554.0 637.0 L 553.0 638.0 Z
    M 551.0 634.0 L 552.0 633.0 L 553.0 634.0 L 552.0 635.0 Z
    M 550.0 631.0 L 551.0 630.0 L 552.0 632.0 L 551.0 633.0 Z
    M 449.0 620.0 L 450.0 619.0 L 451.0 620.0 L 450.0 621.0 Z
    M 448.0 619.0 L 449.0 618.0 L 450.0 619.0 L 449.0 620.0 Z
    M 447.0 618.0 L 448.0 617.0 L 449.0 618.0 L 448.0 619.0 Z
    M 530.0 613.0 L 531.0 612.0 L 532.0 613.0 L 531.0 614.0 Z
    M 478.0 612.0 L 479.0 611.0 L 480.0 612.0 L 479.0 613.0 Z
    M 476.0 611.0 L 477.0 610.0 L 478.0 611.0 L 477.0 612.0 Z
    M 444.0 608.0 L 445.0 607.0 L 446.0 608.0 L 445.0 609.0 Z
    M 443.0 606.0 L 444.0 605.0 L 445.0 606.0 L 444.0 607.0 Z
    M 442.0 587.0 L 443.0 586.0 L 444.0 588.0 L 443.0 589.0 Z
    M 411.0 583.0 L 412.0 582.0 L 413.0 583.0 L 412.0 584.0 Z
    M 314.0 512.0 L 309.0 509.0 L 302.0 507.0 L 287.0 507.0 L 265.0 513.0 L 242.0 526.0 L 244.0 526.0 L 263.0 516.0 L 266.0 516.0 L 282.0 510.0 L 304.0 509.0 Z
    M 536.0 508.0 L 541.0 521.0 L 548.0 533.0 L 576.0 557.0 L 587.0 582.0 L 588.0 597.0 L 589.0 597.0 L 595.0 589.0 L 602.0 572.0 L 603.0 555.0 L 602.0 554.0 L 602.0 545.0 L 600.0 541.0 L 601.0 539.0 L 609.0 552.0 L 612.0 563.0 L 612.0 554.0 L 613.0 553.0 L 612.0 542.0 L 610.0 537.0 L 609.0 529.0 L 603.0 513.0 L 598.0 506.0 L 600.0 505.0 L 613.0 516.0 L 622.0 527.0 L 620.0 521.0 L 617.0 517.0 L 591.0 497.0 L 604.0 521.0 L 610.0 543.0 L 609.0 546.0 L 603.0 537.0 L 595.0 530.0 L 598.0 537.0 L 599.0 547.0 L 600.0 548.0 L 600.0 566.0 L 599.0 567.0 L 599.0 573.0 L 597.0 577.0 L 596.0 576.0 L 595.0 560.0 L 592.0 553.0 L 592.0 550.0 L 590.0 548.0 L 594.0 566.0 L 593.0 581.0 L 591.0 586.0 L 584.0 565.0 L 574.0 547.0 L 567.0 538.0 L 550.0 523.0 Z
    M 542.0 519.0 L 543.0 518.0 L 567.0 543.0 L 565.0 544.0 L 553.0 534.0 L 545.0 525.0 Z
    M 541.0 518.0 L 542.0 517.0 L 543.0 518.0 L 542.0 519.0 Z
    M 597.0 505.0 L 598.0 504.0 L 599.0 505.0 L 598.0 506.0 Z
    M 586.0 492.0 L 589.0 504.0 L 598.0 520.0 L 605.0 536.0 L 602.0 523.0 L 588.0 497.0 L 587.0 492.0 Z
    M 358.0 484.0 L 350.0 495.0 L 350.0 497.0 L 346.0 504.0 L 344.0 513.0 Z
    M 440.0 482.0 L 443.0 491.0 L 443.0 500.0 L 448.0 512.0 L 470.0 535.0 L 476.0 543.0 L 470.0 532.0 L 465.0 518.0 L 461.0 500.0 L 461.0 493.0 L 461.0 507.0 L 464.0 521.0 L 466.0 524.0 L 465.0 527.0 L 453.0 513.0 L 451.0 508.0 L 448.0 505.0 L 443.0 488.0 Z
    M 639.0 481.0 L 644.0 492.0 L 643.0 510.0 L 645.0 512.0 L 647.0 520.0 L 648.0 520.0 L 650.0 513.0 L 650.0 501.0 L 642.0 484.0 Z
    M 647.0 504.0 L 648.0 509.0 L 646.0 511.0 L 645.0 508.0 Z
    M 376.0 471.0 L 368.0 484.0 L 364.0 497.0 L 363.0 522.0 L 366.0 533.0 L 370.0 513.0 L 376.0 501.0 L 377.0 505.0 L 375.0 511.0 L 375.0 533.0 L 379.0 545.0 L 378.0 530.0 L 377.0 529.0 L 378.0 510.0 L 383.0 491.0 L 391.0 479.0 L 385.0 484.0 L 374.0 498.0 L 366.0 517.0 L 365.0 516.0 L 366.0 497.0 Z
    M 376.0 500.0 L 377.0 499.0 L 378.0 501.0 L 377.0 502.0 Z
    M 434.0 470.0 L 433.0 471.0 L 434.0 484.0 L 437.0 493.0 L 441.0 500.0 L 435.0 484.0 Z
    M 671.0 467.0 L 681.0 483.0 L 682.0 487.0 L 679.0 477.0 L 674.0 469.0 Z
    M 685.0 462.0 L 693.0 475.0 L 698.0 489.0 L 697.0 493.0 L 691.0 487.0 L 696.0 494.0 L 698.0 500.0 L 698.0 530.0 L 697.0 535.0 L 696.0 536.0 L 695.0 535.0 L 695.0 527.0 L 691.0 517.0 L 685.0 508.0 L 680.0 503.0 L 679.0 506.0 L 681.0 509.0 L 681.0 514.0 L 682.0 515.0 L 683.0 539.0 L 682.0 540.0 L 682.0 552.0 L 676.0 574.0 L 671.0 583.0 L 670.0 580.0 L 676.0 564.0 L 677.0 552.0 L 678.0 551.0 L 677.0 534.0 L 675.0 528.0 L 676.0 532.0 L 676.0 555.0 L 670.0 578.0 L 665.0 588.0 L 664.0 587.0 L 665.0 583.0 L 665.0 557.0 L 664.0 558.0 L 663.0 569.0 L 658.0 583.0 L 652.0 594.0 L 652.0 596.0 L 646.0 605.0 L 646.0 607.0 L 637.0 619.0 L 636.0 617.0 L 639.0 610.0 L 640.0 600.0 L 639.0 607.0 L 632.0 622.0 L 622.0 637.0 L 611.0 649.0 L 625.0 638.0 L 637.0 625.0 L 648.0 609.0 L 660.0 584.0 L 661.0 585.0 L 661.0 590.0 L 658.0 602.0 L 653.0 614.0 L 671.0 591.0 L 673.0 594.0 L 673.0 598.0 L 674.0 585.0 L 677.0 580.0 L 683.0 562.0 L 684.0 548.0 L 685.0 547.0 L 685.0 527.0 L 686.0 526.0 L 690.0 539.0 L 690.0 557.0 L 689.0 561.0 L 697.0 545.0 L 700.0 532.0 L 700.0 501.0 L 701.0 500.0 L 704.0 504.0 L 708.0 516.0 L 710.0 529.0 L 711.0 527.0 L 711.0 519.0 L 709.0 514.0 L 708.0 506.0 L 701.0 491.0 L 700.0 485.0 L 694.0 472.0 Z
    M 634.0 621.0 L 635.0 620.0 L 636.0 621.0 L 635.0 622.0 Z
    M 635.0 619.0 L 636.0 618.0 L 637.0 620.0 L 636.0 621.0 Z
    M 667.0 588.0 L 668.0 587.0 L 669.0 588.0 L 668.0 589.0 Z
    M 668.0 585.0 L 669.0 584.0 L 670.0 586.0 L 669.0 587.0 Z
    M 669.0 583.0 L 670.0 582.0 L 671.0 584.0 L 670.0 585.0 Z
    M 660.0 583.0 L 661.0 582.0 L 662.0 584.0 L 661.0 585.0 Z
    M 684.0 525.0 L 685.0 524.0 L 686.0 525.0 L 685.0 526.0 Z
    M 683.0 508.0 L 687.0 512.0 L 693.0 524.0 L 694.0 540.0 L 695.0 541.0 L 693.0 544.0 L 691.0 534.0 L 682.0 510.0 Z
    M 681.0 507.0 L 682.0 506.0 L 683.0 508.0 L 682.0 509.0 Z
    M 680.0 506.0 L 681.0 505.0 L 682.0 506.0 L 681.0 507.0 Z
    M 679.0 505.0 L 680.0 504.0 L 681.0 505.0 L 680.0 506.0 Z
    M 699.0 499.0 L 700.0 498.0 L 701.0 500.0 L 700.0 501.0 Z
    M 697.0 493.0 L 698.0 492.0 L 699.0 493.0 L 698.0 494.0 Z
    M 678.0 461.0 L 678.0 465.0 L 681.0 469.0 L 682.0 475.0 L 683.0 475.0 L 683.0 470.0 L 679.0 463.0 L 679.0 461.0 Z
    M 332.0 459.0 L 317.0 475.0 L 306.0 483.0 L 296.0 487.0 L 305.0 485.0 L 314.0 480.0 L 322.0 473.0 L 328.0 466.0 Z
    M 559.0 454.0 L 558.0 463.0 L 559.0 464.0 L 560.0 474.0 L 573.0 502.0 L 582.0 511.0 L 576.0 504.0 L 563.0 478.0 L 559.0 460.0 Z
    M 388.0 447.0 L 373.0 462.0 L 365.0 477.0 L 362.0 485.0 L 362.0 489.0 L 365.0 480.0 L 377.0 459.0 Z
    M 476.0 445.0 L 473.0 452.0 L 470.0 466.0 L 470.0 482.0 L 474.0 500.0 L 485.0 521.0 L 503.0 539.0 L 523.0 554.0 L 499.0 525.0 L 492.0 512.0 L 487.0 505.0 L 488.0 503.0 L 498.0 514.0 L 513.0 522.0 L 522.0 531.0 L 543.0 546.0 L 557.0 561.0 L 555.0 552.0 L 550.0 541.0 L 544.0 533.0 L 538.0 527.0 L 536.0 528.0 L 528.0 516.0 L 526.0 508.0 L 525.0 511.0 L 528.0 519.0 L 527.0 521.0 L 520.0 512.0 L 517.0 506.0 L 514.0 494.0 L 515.0 481.0 L 514.0 481.0 L 513.0 485.0 L 513.0 501.0 L 516.0 510.0 L 518.0 512.0 L 517.0 514.0 L 507.0 504.0 L 499.0 493.0 L 498.0 489.0 L 494.0 483.0 L 491.0 471.0 L 491.0 477.0 L 493.0 484.0 L 503.0 503.0 L 521.0 522.0 L 538.0 534.0 L 545.0 541.0 L 544.0 543.0 L 517.0 525.0 L 511.0 519.0 L 498.0 511.0 L 488.0 500.0 L 481.0 488.0 L 481.0 485.0 L 479.0 482.0 L 477.0 474.0 L 476.0 458.0 L 475.0 457.0 L 476.0 456.0 L 475.0 454.0 Z
    M 545.0 544.0 L 546.0 543.0 L 547.0 544.0 L 546.0 545.0 Z
    M 544.0 543.0 L 545.0 542.0 L 546.0 543.0 L 545.0 544.0 Z
    M 538.0 529.0 L 539.0 528.0 L 540.0 529.0 L 539.0 530.0 Z
    M 497.0 529.0 L 498.0 528.0 L 499.0 529.0 L 498.0 530.0 Z
    M 537.0 528.0 L 538.0 527.0 L 539.0 528.0 L 538.0 529.0 Z
    M 527.0 521.0 L 528.0 520.0 L 529.0 521.0 L 528.0 522.0 Z
    M 486.0 502.0 L 487.0 501.0 L 488.0 502.0 L 487.0 503.0 Z
    M 473.0 466.0 L 479.0 496.0 L 484.0 508.0 L 498.0 528.0 L 497.0 529.0 L 487.0 519.0 L 477.0 500.0 L 472.0 480.0 L 472.0 467.0 Z
    M 543.0 444.0 L 539.0 455.0 L 540.0 472.0 L 542.0 481.0 L 547.0 490.0 L 548.0 495.0 L 552.0 503.0 L 553.0 507.0 L 552.0 510.0 L 555.0 517.0 L 556.0 517.0 L 551.0 496.0 L 550.0 464.0 L 552.0 457.0 L 556.0 451.0 L 560.0 448.0 L 554.0 453.0 L 549.0 464.0 L 548.0 487.0 L 547.0 488.0 L 540.0 466.0 L 540.0 457.0 L 542.0 448.0 L 544.0 445.0 Z
    M 634.0 438.0 L 634.0 454.0 L 635.0 457.0 L 635.0 452.0 L 634.0 451.0 L 634.0 439.0 L 635.0 438.0 Z
    M 680.0 437.0 L 681.0 443.0 L 685.0 451.0 L 692.0 460.0 L 700.0 475.0 L 701.0 475.0 L 697.0 464.0 L 686.0 450.0 Z
    M 524.0 432.0 L 519.0 441.0 L 518.0 446.0 L 514.0 454.0 L 513.0 461.0 Z
    M 501.0 432.0 L 497.0 439.0 L 498.0 447.0 L 499.0 447.0 L 499.0 440.0 Z
    M 386.0 432.0 L 369.0 437.0 L 360.0 442.0 L 351.0 449.0 L 341.0 460.0 L 333.0 474.0 L 330.0 486.0 L 337.0 476.0 L 344.0 469.0 L 353.0 462.0 L 355.0 464.0 L 351.0 468.0 L 344.0 480.0 L 339.0 494.0 L 337.0 505.0 L 341.0 496.0 L 343.0 487.0 L 349.0 475.0 L 357.0 464.0 L 372.0 450.0 L 368.0 451.0 L 353.0 459.0 L 339.0 471.0 L 338.0 469.0 L 342.0 463.0 L 355.0 449.0 L 366.0 441.0 L 378.0 435.0 L 386.0 433.0 Z
    M 336.0 473.0 L 337.0 472.0 L 338.0 473.0 L 337.0 474.0 Z
    M 337.0 471.0 L 338.0 470.0 L 339.0 471.0 L 338.0 472.0 Z
    M 354.0 462.0 L 355.0 461.0 L 356.0 462.0 L 355.0 463.0 Z
    M 355.0 461.0 L 356.0 460.0 L 357.0 461.0 L 356.0 462.0 Z
    M 596.0 431.0 L 593.0 433.0 L 586.0 443.0 L 581.0 455.0 L 579.0 465.0 L 574.0 460.0 L 574.0 454.0 L 575.0 453.0 L 575.0 448.0 L 581.0 440.0 L 578.0 443.0 L 573.0 452.0 L 573.0 457.0 L 572.0 458.0 L 574.0 463.0 L 573.0 477.0 L 574.0 478.0 L 574.0 485.0 L 577.0 493.0 L 576.0 491.0 L 576.0 482.0 L 575.0 481.0 L 575.0 465.0 L 576.0 464.0 L 579.0 466.0 L 584.0 474.0 L 584.0 470.0 L 581.0 466.0 L 581.0 459.0 L 589.0 440.0 L 594.0 434.0 L 595.0 435.0 L 594.0 442.0 L 590.0 455.0 L 590.0 472.0 L 591.0 476.0 L 595.0 482.0 L 592.0 476.0 L 591.0 464.0 L 592.0 463.0 L 592.0 452.0 L 597.0 433.0 Z
    M 543.0 409.0 L 542.0 412.0 L 545.0 413.0 L 544.0 409.0 Z
    M 394.0 408.0 L 375.0 418.0 L 355.0 425.0 L 375.0 420.0 L 385.0 415.0 Z
    M 669.0 407.0 L 668.0 407.0 L 667.0 410.0 L 669.0 410.0 Z
    M 577.0 395.0 L 568.0 395.0 L 549.0 402.0 L 529.0 413.0 L 519.0 417.0 L 516.0 417.0 L 525.0 416.0 L 553.0 402.0 Z
    M 496.0 393.0 L 490.0 403.0 L 488.0 411.0 L 486.0 414.0 L 486.0 418.0 L 488.0 410.0 Z
    M 685.0 386.0 L 683.0 385.0 L 680.0 386.0 L 679.0 388.0 L 683.0 388.0 Z
    M 678.0 376.0 L 682.0 377.0 L 684.0 375.0 L 679.0 375.0 Z
    M 476.0 375.0 L 472.0 382.0 L 469.0 391.0 L 468.0 402.0 L 469.0 405.0 L 472.0 406.0 L 473.0 417.0 L 480.0 434.0 L 485.0 440.0 L 488.0 428.0 L 494.0 416.0 L 504.0 402.0 L 493.0 413.0 L 485.0 428.0 L 483.0 426.0 L 483.0 418.0 L 487.0 402.0 L 493.0 391.0 L 505.0 379.0 L 503.0 379.0 L 498.0 383.0 L 489.0 393.0 L 484.0 403.0 L 479.0 420.0 L 477.0 415.0 L 477.0 398.0 L 481.0 387.0 L 481.0 384.0 L 475.0 394.0 L 474.0 399.0 L 473.0 400.0 L 472.0 399.0 L 472.0 389.0 L 476.0 379.0 Z
    M 688.0 364.0 L 688.0 365.0 L 690.0 365.0 L 690.0 364.0 Z
    M 676.0 364.0 L 677.0 367.0 L 681.0 365.0 Z
    M 671.0 364.0 L 667.0 363.0 L 664.0 365.0 L 666.0 366.0 L 663.0 368.0 L 670.0 367.0 Z
    M 652.0 360.0 L 653.0 361.0 L 655.0 360.0 Z
    M 669.0 357.0 L 671.0 359.0 L 671.0 357.0 Z
    M 631.0 348.0 L 621.0 351.0 L 603.0 351.0 L 607.0 353.0 L 611.0 353.0 L 618.0 358.0 L 620.0 358.0 L 623.0 354.0 Z
    M 480.0 344.0 L 473.0 349.0 L 462.0 362.0 L 451.0 382.0 L 458.0 374.0 L 460.0 375.0 L 452.0 399.0 L 447.0 409.0 L 438.0 422.0 L 432.0 435.0 L 431.0 440.0 L 432.0 444.0 L 434.0 436.0 L 443.0 419.0 L 444.0 420.0 L 443.0 424.0 L 443.0 454.0 L 444.0 455.0 L 445.0 465.0 L 450.0 477.0 L 447.0 468.0 L 447.0 446.0 L 452.0 426.0 L 449.0 432.0 L 447.0 442.0 L 446.0 441.0 L 447.0 416.0 L 462.0 378.0 L 469.0 368.0 L 479.0 358.0 L 488.0 353.0 L 478.0 357.0 L 471.0 362.0 L 463.0 372.0 L 462.0 371.0 L 462.0 368.0 L 464.0 364.0 L 469.0 358.0 L 470.0 355.0 Z
    M 443.0 419.0 L 444.0 418.0 L 445.0 419.0 L 444.0 420.0 Z
    M 560.0 329.0 L 555.0 332.0 L 543.0 345.0 L 536.0 357.0 L 519.0 378.0 L 515.0 385.0 L 537.0 361.0 L 542.0 359.0 L 547.0 360.0 L 544.0 369.0 L 553.0 368.0 L 557.0 370.0 L 547.0 375.0 L 562.0 370.0 L 574.0 362.0 L 578.0 357.0 L 564.0 366.0 L 560.0 365.0 L 566.0 362.0 L 571.0 357.0 L 553.0 365.0 L 551.0 364.0 L 563.0 354.0 L 553.0 360.0 L 550.0 358.0 L 563.0 345.0 L 552.0 353.0 L 548.0 354.0 L 540.0 359.0 L 539.0 358.0 L 546.0 343.0 Z
    M 557.0 366.0 L 558.0 365.0 L 561.0 366.0 L 560.0 367.0 Z
    M 550.0 360.0 L 551.0 359.0 L 552.0 360.0 L 551.0 361.0 Z
    M 546.0 359.0 L 547.0 358.0 L 548.0 359.0 L 547.0 360.0 Z
    M 503.0 327.0 L 496.0 331.0 L 493.0 335.0 L 497.0 333.0 Z
    M 686.0 324.0 L 683.0 330.0 L 685.0 329.0 Z
    M 483.0 324.0 L 471.0 331.0 L 457.0 345.0 L 454.0 354.0 L 462.0 343.0 Z
    M 445.0 324.0 L 438.0 328.0 L 425.0 339.0 L 424.0 337.0 L 432.0 326.0 L 430.0 326.0 L 426.0 330.0 L 420.0 341.0 L 414.0 349.0 L 414.0 351.0 L 409.0 360.0 L 402.0 370.0 L 396.0 375.0 L 397.0 376.0 L 403.0 374.0 L 419.0 365.0 L 422.0 366.0 L 407.0 379.0 L 395.0 387.0 L 379.0 395.0 L 367.0 399.0 L 352.0 400.0 L 352.0 401.0 L 363.0 404.0 L 380.0 404.0 L 382.0 403.0 L 383.0 404.0 L 381.0 406.0 L 351.0 419.0 L 329.0 431.0 L 316.0 443.0 L 337.0 435.0 L 341.0 436.0 L 328.0 443.0 L 311.0 457.0 L 305.0 460.0 L 296.0 462.0 L 279.0 462.0 L 277.0 461.0 L 279.0 463.0 L 292.0 467.0 L 300.0 467.0 L 301.0 468.0 L 306.0 467.0 L 307.0 468.0 L 306.0 469.0 L 283.0 477.0 L 253.0 494.0 L 232.0 498.0 L 241.0 501.0 L 255.0 502.0 L 256.0 503.0 L 241.0 513.0 L 228.0 526.0 L 224.0 532.0 L 233.0 523.0 L 249.0 511.0 L 270.0 500.0 L 282.0 497.0 L 296.0 497.0 L 309.0 501.0 L 299.0 497.0 L 289.0 495.0 L 275.0 495.0 L 258.0 499.0 L 250.0 499.0 L 249.0 498.0 L 270.0 489.0 L 282.0 481.0 L 294.0 476.0 L 306.0 473.0 L 315.0 468.0 L 332.0 451.0 L 340.0 446.0 L 333.0 449.0 L 321.0 459.0 L 309.0 464.0 L 305.0 463.0 L 317.0 457.0 L 328.0 447.0 L 337.0 441.0 L 356.0 434.0 L 348.0 432.0 L 337.0 432.0 L 336.0 431.0 L 363.0 417.0 L 372.0 414.0 L 390.0 403.0 L 398.0 395.0 L 385.0 401.0 L 370.0 401.0 L 369.0 400.0 L 381.0 397.0 L 399.0 388.0 L 408.0 381.0 L 420.0 369.0 L 421.0 371.0 L 414.0 384.0 L 406.0 403.0 L 402.0 409.0 L 394.0 417.0 L 384.0 424.0 L 394.0 420.0 L 405.0 411.0 L 409.0 409.0 L 411.0 410.0 L 402.0 431.0 L 400.0 444.0 L 396.0 458.0 L 390.0 468.0 L 398.0 462.0 L 408.0 450.0 L 409.0 451.0 L 407.0 460.0 L 407.0 485.0 L 408.0 486.0 L 410.0 505.0 L 411.0 504.0 L 411.0 493.0 L 412.0 492.0 L 430.0 516.0 L 436.0 528.0 L 439.0 541.0 L 440.0 541.0 L 438.0 529.0 L 428.0 509.0 L 428.0 507.0 L 423.0 499.0 L 418.0 485.0 L 418.0 482.0 L 418.0 488.0 L 421.0 497.0 L 420.0 499.0 L 413.0 488.0 L 411.0 481.0 L 411.0 476.0 L 409.0 472.0 L 409.0 465.0 L 410.0 464.0 L 410.0 457.0 L 412.0 447.0 L 418.0 433.0 L 414.0 436.0 L 402.0 453.0 L 401.0 449.0 L 406.0 427.0 L 417.0 406.0 L 415.0 405.0 L 418.0 399.0 L 429.0 384.0 L 425.0 387.0 L 411.0 403.0 L 410.0 401.0 L 412.0 395.0 L 421.0 376.0 L 425.0 372.0 L 424.0 369.0 L 428.0 363.0 L 441.0 349.0 L 419.0 362.0 L 418.0 360.0 L 424.0 354.0 L 431.0 343.0 L 430.0 343.0 L 419.0 358.0 L 411.0 366.0 L 410.0 364.0 L 420.0 348.0 Z
    M 335.0 432.0 L 336.0 431.0 L 337.0 432.0 L 336.0 433.0 Z
    M 409.0 403.0 L 410.0 402.0 L 411.0 403.0 L 410.0 404.0 Z
    M 409.0 366.0 L 410.0 365.0 L 411.0 366.0 L 410.0 367.0 Z
    M 421.0 365.0 L 422.0 364.0 L 423.0 365.0 L 422.0 366.0 Z
    M 416.0 363.0 L 417.0 362.0 L 418.0 363.0 L 417.0 364.0 Z
    M 417.0 362.0 L 418.0 361.0 L 419.0 362.0 L 418.0 363.0 Z
    M 423.0 339.0 L 424.0 338.0 L 425.0 339.0 L 424.0 340.0 Z
    M 536.0 315.0 L 510.0 331.0 L 508.0 331.0 L 501.0 335.0 L 505.0 335.0 L 516.0 330.0 Z
    M 580.0 316.0 L 579.0 320.0 L 586.0 321.0 L 594.0 330.0 L 591.0 331.0 L 587.0 329.0 L 579.0 328.0 L 578.0 329.0 L 581.0 329.0 L 583.0 331.0 L 580.0 332.0 L 579.0 334.0 L 588.0 333.0 L 597.0 336.0 L 605.0 341.0 L 615.0 344.0 L 630.0 343.0 L 630.0 342.0 L 625.0 343.0 L 624.0 342.0 L 612.0 341.0 L 601.0 335.0 L 592.0 325.0 L 591.0 322.0 L 593.0 321.0 L 607.0 328.0 L 608.0 327.0 L 586.0 315.0 L 588.0 313.0 L 592.0 312.0 L 586.0 312.0 L 585.0 314.0 Z
    M 593.0 331.0 L 594.0 330.0 L 595.0 331.0 L 594.0 332.0 Z
    M 589.0 290.0 L 584.0 290.0 L 582.0 292.0 L 574.0 293.0 L 567.0 296.0 L 561.0 296.0 L 578.0 295.0 L 589.0 291.0 Z
    M 564.0 290.0 L 554.0 288.0 L 556.0 290.0 L 555.0 291.0 L 547.0 292.0 L 538.0 296.0 L 534.0 296.0 L 533.0 295.0 L 535.0 294.0 L 527.0 296.0 L 514.0 297.0 L 513.0 296.0 L 516.0 293.0 L 510.0 296.0 L 505.0 302.0 L 510.0 299.0 L 511.0 300.0 L 520.0 299.0 L 527.0 296.0 L 536.0 297.0 L 556.0 293.0 L 559.0 290.0 Z
    M 530.0 296.0 L 531.0 295.0 L 533.0 296.0 L 532.0 297.0 Z
    M 607.0 294.0 L 607.0 295.0 L 612.0 295.0 L 624.0 306.0 L 632.0 311.0 L 641.0 314.0 L 645.0 314.0 L 651.0 317.0 L 659.0 324.0 L 659.0 326.0 L 660.0 326.0 L 661.0 322.0 L 663.0 326.0 L 663.0 332.0 L 663.0 323.0 L 658.0 312.0 L 659.0 311.0 L 665.0 314.0 L 661.0 308.0 L 659.0 308.0 L 657.0 311.0 L 653.0 312.0 L 641.0 312.0 L 635.0 309.0 L 636.0 308.0 L 644.0 309.0 L 648.0 302.0 L 648.0 295.0 L 645.0 289.0 L 642.0 286.0 L 639.0 286.0 L 640.0 298.0 L 636.0 303.0 L 633.0 299.0 L 632.0 292.0 L 637.0 291.0 L 632.0 289.0 L 631.0 286.0 L 625.0 286.0 L 624.0 287.0 L 623.0 286.0 L 620.0 290.0 L 620.0 293.0 L 625.0 301.0 L 624.0 302.0 L 615.0 293.0 Z
    M 657.0 311.0 L 658.0 310.0 L 659.0 311.0 L 658.0 312.0 Z
    M 633.0 308.0 L 634.0 307.0 L 636.0 308.0 L 635.0 309.0 Z
    M 630.0 307.0 L 631.0 306.0 L 633.0 307.0 L 632.0 308.0 Z
    M 629.0 306.0 L 630.0 305.0 L 631.0 306.0 L 630.0 307.0 Z
    M 627.0 305.0 L 628.0 304.0 L 629.0 305.0 L 628.0 306.0 Z
    M 626.0 304.0 L 627.0 303.0 L 628.0 304.0 L 627.0 305.0 Z
    M 625.0 303.0 L 626.0 302.0 L 627.0 303.0 L 626.0 304.0 Z
    M 624.0 302.0 L 625.0 301.0 L 626.0 302.0 L 625.0 303.0 Z
    M 501.0 293.0 L 494.0 296.0 L 489.0 296.0 L 482.0 299.0 L 478.0 299.0 L 475.0 303.0 L 474.0 302.0 L 476.0 297.0 L 475.0 294.0 L 480.0 285.0 L 475.0 290.0 L 470.0 306.0 L 468.0 309.0 L 468.0 312.0 L 471.0 311.0 L 481.0 300.0 L 483.0 299.0 L 485.0 300.0 L 473.0 312.0 L 467.0 320.0 L 462.0 329.0 L 463.0 334.0 L 465.0 332.0 L 465.0 329.0 L 474.0 315.0 L 490.0 300.0 Z
    M 507.0 277.0 L 501.0 281.0 L 493.0 284.0 L 492.0 286.0 L 502.0 282.0 Z
    M 462.0 267.0 L 460.0 267.0 L 452.0 275.0 L 445.0 280.0 L 438.0 289.0 L 429.0 297.0 L 432.0 297.0 L 441.0 293.0 L 444.0 294.0 L 432.0 305.0 L 428.0 311.0 L 410.0 329.0 L 420.0 324.0 L 423.0 324.0 L 429.0 321.0 L 432.0 318.0 L 439.0 316.0 L 447.0 311.0 L 436.0 314.0 L 429.0 318.0 L 427.0 317.0 L 441.0 301.0 L 458.0 287.0 L 458.0 286.0 L 452.0 289.0 L 449.0 289.0 L 446.0 287.0 L 449.0 284.0 L 458.0 279.0 L 458.0 278.0 L 457.0 279.0 L 452.0 278.0 Z
    M 423.0 320.0 L 424.0 319.0 L 425.0 320.0 L 424.0 321.0 Z
    M 424.0 319.0 L 425.0 318.0 L 426.0 319.0 L 425.0 320.0 Z
    M 425.0 318.0 L 426.0 317.0 L 428.0 318.0 L 427.0 319.0 Z
    M 527.0 254.0 L 526.0 255.0 L 526.0 260.0 L 530.0 266.0 L 533.0 267.0 L 528.0 259.0 Z
    M 657.0 247.0 L 665.0 264.0 L 665.0 269.0 L 666.0 270.0 L 665.0 277.0 L 666.0 277.0 L 669.0 272.0 L 670.0 273.0 L 672.0 270.0 L 674.0 270.0 L 674.0 267.0 L 672.0 262.0 L 669.0 260.0 L 669.0 258.0 Z
    M 506.0 243.0 L 504.0 247.0 L 505.0 247.0 Z
    M 684.0 242.0 L 687.0 249.0 L 692.0 255.0 L 697.0 264.0 L 694.0 254.0 L 692.0 253.0 L 691.0 250.0 Z
    M 533.0 257.0 L 534.0 259.0 L 538.0 260.0 L 537.0 259.0 L 537.0 249.0 L 541.0 242.0 L 547.0 244.0 L 556.0 254.0 L 557.0 253.0 L 555.0 249.0 L 556.0 248.0 L 557.0 249.0 L 557.0 248.0 L 552.0 243.0 L 551.0 245.0 L 544.0 241.0 L 537.0 241.0 L 538.0 243.0 L 536.0 246.0 Z
    M 554.0 248.0 L 555.0 247.0 L 556.0 248.0 L 555.0 249.0 Z
    M 553.0 247.0 L 554.0 246.0 L 555.0 247.0 L 554.0 248.0 Z
    M 552.0 246.0 L 553.0 245.0 L 554.0 246.0 L 553.0 247.0 Z
    M 551.0 245.0 L 552.0 244.0 L 553.0 245.0 L 552.0 246.0 Z
    M 502.0 230.0 L 502.0 235.0 L 498.0 244.0 L 497.0 250.0 L 498.0 253.0 L 501.0 256.0 L 502.0 263.0 L 506.0 267.0 L 505.0 256.0 L 501.0 250.0 L 501.0 246.0 L 505.0 238.0 L 505.0 233.0 Z
    M 532.0 235.0 L 534.0 235.0 L 540.0 231.0 L 552.0 231.0 L 549.0 229.0 L 541.0 229.0 L 532.0 234.0 Z
    M 594.0 226.0 L 590.0 233.0 L 591.0 233.0 Z
    M 565.0 223.0 L 570.0 231.0 L 571.0 236.0 L 573.0 235.0 L 576.0 239.0 L 573.0 230.0 L 574.0 229.0 L 578.0 235.0 L 578.0 233.0 L 579.0 232.0 L 580.0 233.0 L 579.0 229.0 L 574.0 225.0 L 572.0 225.0 L 571.0 228.0 L 567.0 223.0 Z
    M 572.0 229.0 L 573.0 228.0 L 574.0 229.0 L 573.0 230.0 Z
    M 526.0 209.0 L 526.0 210.0 L 538.0 214.0 L 543.0 217.0 L 531.0 210.0 Z
    M 495.0 187.0 L 496.0 209.0 L 498.0 215.0 L 501.0 219.0 L 496.0 202.0 Z
    M 508.0 185.0 L 515.0 186.0 L 525.0 190.0 L 534.0 197.0 L 530.0 198.0 L 519.0 193.0 L 511.0 191.0 L 526.0 198.0 L 531.0 202.0 L 530.0 203.0 L 519.0 204.0 L 514.0 207.0 L 510.0 207.0 L 525.0 213.0 L 533.0 219.0 L 543.0 224.0 L 550.0 226.0 L 559.0 232.0 L 552.0 225.0 L 546.0 222.0 L 540.0 221.0 L 526.0 212.0 L 514.0 207.0 L 522.0 204.0 L 528.0 204.0 L 534.0 206.0 L 546.0 213.0 L 558.0 223.0 L 554.0 216.0 L 555.0 215.0 L 557.0 216.0 L 556.0 213.0 L 548.0 205.0 L 541.0 202.0 L 532.0 193.0 L 528.0 191.0 L 525.0 187.0 L 516.0 183.0 L 513.0 183.0 L 515.0 184.0 L 514.0 185.0 Z
    M 530.0 203.0 L 531.0 202.0 L 533.0 203.0 L 532.0 204.0 Z
    M 532.0 201.0 L 534.0 200.0 L 539.0 202.0 L 549.0 209.0 L 555.0 215.0 L 553.0 216.0 L 546.0 210.0 Z
    M 530.0 200.0 L 531.0 199.0 L 533.0 200.0 L 532.0 201.0 Z
    M 515.0 178.0 L 517.0 180.0 L 532.0 186.0 L 543.0 193.0 L 560.0 210.0 L 556.0 202.0 L 544.0 191.0 L 528.0 182.0 Z
    M 518.0 174.0 L 542.0 185.0 L 549.0 190.0 L 559.0 200.0 L 561.0 204.0 L 556.0 193.0 L 539.0 176.0 L 545.0 183.0 L 544.0 184.0 L 530.0 177.0 Z
    M 545.0 185.0 L 546.0 184.0 L 547.0 185.0 L 546.0 186.0 Z
    M 544.0 184.0 L 545.0 183.0 L 546.0 184.0 L 545.0 185.0 Z
    M 509.0 153.0 L 510.0 155.0 L 503.0 164.0 L 502.0 169.0 L 505.0 162.0 L 512.0 155.0 L 515.0 154.0 L 527.0 155.0 L 535.0 160.0 L 545.0 171.0 L 544.0 172.0 L 535.0 165.0 L 522.0 159.0 L 519.0 159.0 L 526.0 162.0 L 525.0 163.0 L 522.0 162.0 L 512.0 163.0 L 516.0 162.0 L 524.0 163.0 L 533.0 167.0 L 548.0 179.0 L 557.0 189.0 L 554.0 183.0 L 546.0 174.0 L 547.0 172.0 L 544.0 167.0 L 530.0 151.0 L 524.0 147.0 L 517.0 147.0 Z
    M 545.0 173.0 L 546.0 172.0 L 547.0 173.0 L 546.0 174.0 Z
    M 544.0 172.0 L 545.0 171.0 L 546.0 172.0 L 545.0 173.0 Z
    M 530.0 155.0 L 531.0 154.0 L 532.0 155.0 L 531.0 156.0 Z
    M 528.0 154.0 L 529.0 153.0 L 531.0 154.0 L 530.0 155.0 Z
    M 509.0 154.0 L 513.0 150.0 L 516.0 149.0 L 526.0 150.0 L 529.0 153.0 L 527.0 154.0 L 524.0 152.0 L 516.0 152.0 L 511.0 155.0 Z
    M 515.0 143.0 L 522.0 143.0 L 526.0 145.0 L 543.0 161.0 L 546.0 166.0 L 544.0 160.0 L 529.0 145.0 L 520.0 141.0 Z
    M 495.0 85.0 L 495.0 87.0 L 502.0 98.0 L 505.0 115.0 L 504.0 116.0 L 503.0 115.0 L 503.0 113.0 L 498.0 104.0 L 492.0 97.0 L 499.0 113.0 L 500.0 124.0 L 499.0 125.0 L 498.0 124.0 L 498.0 122.0 L 494.0 115.0 L 497.0 128.0 L 497.0 146.0 L 498.0 147.0 L 489.0 173.0 L 485.0 194.0 L 485.0 204.0 L 484.0 205.0 L 483.0 216.0 L 480.0 223.0 L 468.0 233.0 L 473.0 235.0 L 468.0 244.0 L 455.0 256.0 L 450.0 258.0 L 450.0 259.0 L 463.0 256.0 L 474.0 259.0 L 469.0 262.0 L 467.0 265.0 L 468.0 268.0 L 473.0 272.0 L 473.0 274.0 L 469.0 279.0 L 468.0 283.0 L 470.0 284.0 L 476.0 281.0 L 480.0 276.0 L 480.0 274.0 L 475.0 278.0 L 474.0 277.0 L 475.0 273.0 L 482.0 270.0 L 482.0 269.0 L 477.0 270.0 L 476.0 269.0 L 477.0 266.0 L 472.0 268.0 L 471.0 267.0 L 471.0 264.0 L 479.0 256.0 L 467.0 256.0 L 466.0 252.0 L 473.0 248.0 L 480.0 240.0 L 479.0 239.0 L 474.0 243.0 L 473.0 242.0 L 476.0 235.0 L 481.0 232.0 L 481.0 231.0 L 477.0 230.0 L 481.0 226.0 L 485.0 216.0 L 486.0 217.0 L 486.0 236.0 L 489.0 249.0 L 495.0 260.0 L 495.0 263.0 L 497.0 267.0 L 502.0 272.0 L 508.0 273.0 L 499.0 266.0 L 496.0 261.0 L 496.0 255.0 L 491.0 248.0 L 488.0 240.0 L 488.0 234.0 L 487.0 233.0 L 487.0 219.0 L 488.0 218.0 L 494.0 233.0 L 499.0 235.0 L 499.0 233.0 L 497.0 232.0 L 492.0 223.0 L 489.0 214.0 L 488.0 189.0 L 494.0 164.0 L 503.0 143.0 L 513.0 132.0 L 524.0 131.0 L 532.0 134.0 L 542.0 143.0 L 551.0 156.0 L 566.0 184.0 L 577.0 213.0 L 576.0 205.0 L 574.0 200.0 L 575.0 196.0 L 590.0 216.0 L 592.0 216.0 L 592.0 215.0 L 586.0 208.0 L 587.0 206.0 L 596.0 208.0 L 599.0 213.0 L 600.0 210.0 L 603.0 212.0 L 603.0 215.0 L 598.0 228.0 L 603.0 220.0 L 605.0 212.0 L 606.0 213.0 L 606.0 219.0 L 604.0 224.0 L 609.0 219.0 L 610.0 215.0 L 615.0 219.0 L 615.0 217.0 L 613.0 215.0 L 614.0 214.0 L 622.0 214.0 L 630.0 222.0 L 638.0 233.0 L 643.0 246.0 L 645.0 248.0 L 647.0 256.0 L 646.0 257.0 L 644.0 255.0 L 643.0 252.0 L 635.0 242.0 L 623.0 231.0 L 640.0 250.0 L 640.0 252.0 L 639.0 253.0 L 633.0 250.0 L 626.0 249.0 L 633.0 251.0 L 639.0 256.0 L 638.0 257.0 L 632.0 256.0 L 638.0 258.0 L 652.0 274.0 L 652.0 276.0 L 651.0 277.0 L 648.0 274.0 L 646.0 276.0 L 643.0 273.0 L 642.0 273.0 L 643.0 274.0 L 642.0 276.0 L 638.0 274.0 L 635.0 274.0 L 628.0 269.0 L 624.0 268.0 L 634.0 274.0 L 629.0 275.0 L 621.0 273.0 L 608.0 265.0 L 613.0 270.0 L 628.0 276.0 L 623.0 277.0 L 613.0 274.0 L 603.0 273.0 L 622.0 278.0 L 621.0 279.0 L 610.0 279.0 L 602.0 277.0 L 605.0 279.0 L 613.0 281.0 L 606.0 284.0 L 614.0 285.0 L 630.0 279.0 L 642.0 279.0 L 647.0 281.0 L 652.0 285.0 L 655.0 290.0 L 659.0 302.0 L 670.0 313.0 L 673.0 314.0 L 674.0 319.0 L 675.0 310.0 L 673.0 302.0 L 670.0 301.0 L 668.0 293.0 L 663.0 290.0 L 665.0 281.0 L 664.0 280.0 L 659.0 287.0 L 657.0 285.0 L 655.0 279.0 L 655.0 270.0 L 650.0 259.0 L 652.0 254.0 L 653.0 255.0 L 654.0 245.0 L 657.0 237.0 L 664.0 242.0 L 675.0 253.0 L 676.0 257.0 L 679.0 261.0 L 676.0 248.0 L 675.0 251.0 L 666.0 241.0 L 657.0 235.0 L 657.0 233.0 L 654.0 240.0 L 653.0 248.0 L 651.0 253.0 L 649.0 243.0 L 649.0 248.0 L 651.0 255.0 L 650.0 259.0 L 646.0 250.0 L 646.0 237.0 L 649.0 235.0 L 647.0 234.0 L 648.0 223.0 L 650.0 221.0 L 657.0 223.0 L 659.0 225.0 L 658.0 229.0 L 661.0 225.0 L 663.0 225.0 L 681.0 236.0 L 699.0 254.0 L 705.0 269.0 L 708.0 273.0 L 704.0 285.0 L 704.0 300.0 L 707.0 308.0 L 706.0 310.0 L 703.0 307.0 L 702.0 302.0 L 697.0 291.0 L 697.0 288.0 L 692.0 278.0 L 690.0 270.0 L 681.0 249.0 L 682.0 257.0 L 687.0 270.0 L 688.0 280.0 L 694.0 300.0 L 702.0 310.0 L 700.0 313.0 L 698.0 311.0 L 698.0 312.0 L 705.0 320.0 L 721.0 330.0 L 723.0 329.0 L 732.0 338.0 L 734.0 342.0 L 733.0 343.0 L 712.0 342.0 L 707.0 346.0 L 704.0 346.0 L 700.0 344.0 L 701.0 347.0 L 706.0 350.0 L 711.0 351.0 L 715.0 349.0 L 718.0 349.0 L 721.0 352.0 L 721.0 357.0 L 717.0 364.0 L 714.0 359.0 L 705.0 355.0 L 694.0 346.0 L 696.0 350.0 L 701.0 355.0 L 710.0 359.0 L 714.0 365.0 L 715.0 370.0 L 711.0 374.0 L 707.0 375.0 L 716.0 374.0 L 717.0 377.0 L 715.0 381.0 L 708.0 387.0 L 688.0 397.0 L 683.0 398.0 L 681.0 396.0 L 681.0 398.0 L 677.0 401.0 L 676.0 400.0 L 672.0 401.0 L 668.0 400.0 L 671.0 398.0 L 675.0 390.0 L 666.0 401.0 L 664.0 400.0 L 667.0 395.0 L 662.0 401.0 L 657.0 401.0 L 656.0 400.0 L 659.0 398.0 L 660.0 393.0 L 677.0 387.0 L 674.0 385.0 L 672.0 385.0 L 664.0 390.0 L 661.0 389.0 L 663.0 387.0 L 663.0 385.0 L 659.0 386.0 L 656.0 389.0 L 651.0 391.0 L 646.0 391.0 L 643.0 393.0 L 640.0 392.0 L 642.0 390.0 L 649.0 387.0 L 652.0 387.0 L 654.0 385.0 L 646.0 387.0 L 640.0 390.0 L 636.0 389.0 L 641.0 385.0 L 653.0 380.0 L 669.0 377.0 L 673.0 378.0 L 676.0 376.0 L 660.0 375.0 L 659.0 377.0 L 657.0 377.0 L 654.0 374.0 L 646.0 376.0 L 645.0 375.0 L 646.0 374.0 L 639.0 374.0 L 635.0 376.0 L 632.0 375.0 L 632.0 369.0 L 633.0 368.0 L 638.0 368.0 L 639.0 369.0 L 649.0 367.0 L 651.0 369.0 L 655.0 369.0 L 656.0 366.0 L 662.0 365.0 L 661.0 363.0 L 651.0 364.0 L 640.0 367.0 L 632.0 365.0 L 637.0 364.0 L 645.0 359.0 L 642.0 358.0 L 656.0 348.0 L 652.0 348.0 L 650.0 351.0 L 640.0 355.0 L 635.0 360.0 L 630.0 361.0 L 629.0 362.0 L 632.0 363.0 L 630.0 364.0 L 632.0 365.0 L 631.0 366.0 L 607.0 368.0 L 584.0 373.0 L 556.0 384.0 L 540.0 393.0 L 537.0 393.0 L 543.0 394.0 L 542.0 393.0 L 546.0 390.0 L 577.0 377.0 L 594.0 374.0 L 605.0 370.0 L 623.0 369.0 L 624.0 368.0 L 629.0 369.0 L 625.0 372.0 L 605.0 374.0 L 594.0 377.0 L 591.0 379.0 L 588.0 377.0 L 589.0 378.0 L 588.0 380.0 L 591.0 382.0 L 591.0 387.0 L 600.0 383.0 L 619.0 379.0 L 623.0 379.0 L 627.0 382.0 L 625.0 384.0 L 615.0 387.0 L 603.0 393.0 L 601.0 393.0 L 599.0 391.0 L 598.0 396.0 L 596.0 395.0 L 596.0 392.0 L 595.0 392.0 L 596.0 396.0 L 582.0 404.0 L 579.0 403.0 L 582.0 400.0 L 567.0 401.0 L 568.0 402.0 L 577.0 402.0 L 580.0 404.0 L 561.0 416.0 L 550.0 427.0 L 544.0 439.0 L 549.0 430.0 L 559.0 420.0 L 570.0 412.0 L 594.0 399.0 L 596.0 399.0 L 599.0 402.0 L 570.0 419.0 L 556.0 429.0 L 562.0 427.0 L 575.0 417.0 L 599.0 404.0 L 603.0 412.0 L 605.0 413.0 L 595.0 420.0 L 585.0 432.0 L 595.0 422.0 L 606.0 414.0 L 608.0 416.0 L 612.0 412.0 L 614.0 413.0 L 614.0 415.0 L 610.0 421.0 L 616.0 414.0 L 619.0 415.0 L 610.0 426.0 L 611.0 430.0 L 607.0 440.0 L 607.0 457.0 L 615.0 481.0 L 614.0 482.0 L 608.0 474.0 L 608.0 476.0 L 616.0 501.0 L 631.0 522.0 L 640.0 543.0 L 645.0 567.0 L 646.0 583.0 L 647.0 584.0 L 646.0 585.0 L 646.0 591.0 L 658.0 551.0 L 661.0 530.0 L 668.0 523.0 L 669.0 512.0 L 668.0 520.0 L 665.0 524.0 L 664.0 523.0 L 665.0 518.0 L 664.0 510.0 L 661.0 498.0 L 654.0 484.0 L 646.0 475.0 L 653.0 485.0 L 653.0 487.0 L 657.0 494.0 L 662.0 511.0 L 662.0 525.0 L 661.0 526.0 L 656.0 511.0 L 652.0 507.0 L 656.0 514.0 L 658.0 522.0 L 658.0 538.0 L 656.0 543.0 L 652.0 566.0 L 647.0 582.0 L 646.0 581.0 L 646.0 548.0 L 643.0 532.0 L 634.0 514.0 L 633.0 514.0 L 639.0 525.0 L 644.0 541.0 L 643.0 546.0 L 638.0 531.0 L 631.0 517.0 L 621.0 504.0 L 615.0 490.0 L 616.0 485.0 L 622.0 489.0 L 641.0 508.0 L 638.0 502.0 L 638.0 499.0 L 633.0 487.0 L 632.0 481.0 L 628.0 473.0 L 625.0 460.0 L 624.0 460.0 L 624.0 463.0 L 630.0 484.0 L 635.0 494.0 L 634.0 497.0 L 632.0 495.0 L 632.0 493.0 L 626.0 482.0 L 620.0 466.0 L 620.0 451.0 L 622.0 441.0 L 631.0 425.0 L 634.0 422.0 L 642.0 423.0 L 644.0 425.0 L 640.0 433.0 L 637.0 446.0 L 640.0 435.0 L 647.0 425.0 L 651.0 426.0 L 653.0 428.0 L 652.0 431.0 L 655.0 428.0 L 659.0 429.0 L 655.0 431.0 L 650.0 436.0 L 658.0 432.0 L 669.0 429.0 L 672.0 429.0 L 674.0 434.0 L 694.0 434.0 L 707.0 427.0 L 709.0 430.0 L 711.0 438.0 L 710.0 439.0 L 707.0 434.0 L 705.0 433.0 L 709.0 443.0 L 708.0 444.0 L 703.0 439.0 L 711.0 451.0 L 712.0 459.0 L 711.0 460.0 L 704.0 453.0 L 704.0 455.0 L 715.0 471.0 L 717.0 480.0 L 716.0 485.0 L 711.0 475.0 L 698.0 460.0 L 698.0 458.0 L 694.0 451.0 L 688.0 446.0 L 693.0 451.0 L 699.0 463.0 L 709.0 474.0 L 714.0 483.0 L 719.0 499.0 L 720.0 511.0 L 722.0 501.0 L 722.0 487.0 L 721.0 486.0 L 720.0 473.0 L 715.0 458.0 L 714.0 451.0 L 715.0 450.0 L 730.0 463.0 L 722.0 453.0 L 719.0 445.0 L 715.0 439.0 L 710.0 425.0 L 718.0 410.0 L 718.0 400.0 L 716.0 397.0 L 715.0 410.0 L 711.0 417.0 L 707.0 420.0 L 706.0 419.0 L 707.0 415.0 L 706.0 415.0 L 703.0 421.0 L 702.0 418.0 L 700.0 420.0 L 698.0 426.0 L 695.0 429.0 L 693.0 428.0 L 695.0 423.0 L 689.0 429.0 L 687.0 427.0 L 690.0 422.0 L 681.0 429.0 L 679.0 429.0 L 678.0 427.0 L 683.0 424.0 L 684.0 422.0 L 679.0 424.0 L 671.0 424.0 L 669.0 422.0 L 664.0 422.0 L 658.0 419.0 L 664.0 407.0 L 667.0 404.0 L 671.0 404.0 L 675.0 402.0 L 676.0 404.0 L 678.0 404.0 L 683.0 400.0 L 690.0 399.0 L 701.0 393.0 L 703.0 393.0 L 713.0 387.0 L 717.0 383.0 L 718.0 388.0 L 722.0 395.0 L 722.0 403.0 L 720.0 406.0 L 725.0 404.0 L 731.0 397.0 L 733.0 402.0 L 739.0 412.0 L 743.0 424.0 L 744.0 422.0 L 745.0 423.0 L 752.0 443.0 L 748.0 429.0 L 732.0 398.0 L 733.0 395.0 L 742.0 410.0 L 745.0 413.0 L 747.0 418.0 L 743.0 409.0 L 733.0 394.0 L 735.0 392.0 L 740.0 398.0 L 740.0 400.0 L 756.0 424.0 L 757.0 428.0 L 765.0 442.0 L 767.0 450.0 L 765.0 441.0 L 752.0 415.0 L 744.0 404.0 L 743.0 399.0 L 738.0 394.0 L 739.0 392.0 L 749.0 399.0 L 762.0 413.0 L 774.0 433.0 L 777.0 445.0 L 776.0 437.0 L 764.0 414.0 L 748.0 397.0 L 736.0 388.0 L 738.0 386.0 L 746.0 393.0 L 755.0 398.0 L 737.0 383.0 L 737.0 381.0 L 739.0 380.0 L 749.0 384.0 L 767.0 396.0 L 784.0 413.0 L 794.0 426.0 L 784.0 412.0 L 770.0 397.0 L 752.0 384.0 L 739.0 378.0 L 738.0 373.0 L 739.0 372.0 L 753.0 373.0 L 763.0 377.0 L 766.0 377.0 L 783.0 385.0 L 770.0 378.0 L 753.0 372.0 L 739.0 371.0 L 737.0 361.0 L 735.0 357.0 L 725.0 369.0 L 721.0 377.0 L 720.0 376.0 L 720.0 369.0 L 717.0 364.0 L 719.0 363.0 L 721.0 366.0 L 723.0 362.0 L 724.0 365.0 L 728.0 361.0 L 731.0 354.0 L 732.0 355.0 L 736.0 351.0 L 737.0 344.0 L 730.0 333.0 L 732.0 332.0 L 731.0 321.0 L 725.0 309.0 L 721.0 306.0 L 717.0 305.0 L 716.0 314.0 L 718.0 315.0 L 721.0 309.0 L 726.0 314.0 L 729.0 323.0 L 729.0 329.0 L 730.0 330.0 L 729.0 332.0 L 712.0 314.0 L 711.0 312.0 L 714.0 310.0 L 714.0 300.0 L 712.0 296.0 L 709.0 296.0 L 710.0 308.0 L 709.0 309.0 L 708.0 308.0 L 705.0 298.0 L 705.0 290.0 L 708.0 280.0 L 709.0 270.0 L 706.0 264.0 L 707.0 263.0 L 711.0 269.0 L 711.0 272.0 L 714.0 274.0 L 715.0 277.0 L 713.0 282.0 L 717.0 278.0 L 719.0 279.0 L 719.0 283.0 L 717.0 285.0 L 715.0 284.0 L 712.0 285.0 L 708.0 289.0 L 707.0 293.0 L 716.0 289.0 L 721.0 290.0 L 722.0 295.0 L 718.0 298.0 L 718.0 300.0 L 720.0 300.0 L 725.0 295.0 L 727.0 291.0 L 726.0 285.0 L 720.0 275.0 L 723.0 272.0 L 739.0 266.0 L 750.0 265.0 L 748.0 264.0 L 729.0 268.0 L 720.0 273.0 L 717.0 271.0 L 720.0 266.0 L 728.0 259.0 L 746.0 248.0 L 727.0 258.0 L 716.0 269.0 L 712.0 264.0 L 726.0 246.0 L 741.0 233.0 L 732.0 239.0 L 718.0 253.0 L 711.0 263.0 L 695.0 245.0 L 699.0 243.0 L 698.0 242.0 L 699.0 241.0 L 701.0 241.0 L 696.0 237.0 L 697.0 235.0 L 710.0 242.0 L 707.0 239.0 L 707.0 237.0 L 696.0 231.0 L 697.0 229.0 L 703.0 230.0 L 699.0 229.0 L 697.0 227.0 L 698.0 226.0 L 709.0 225.0 L 709.0 224.0 L 698.0 225.0 L 697.0 223.0 L 700.0 220.0 L 710.0 220.0 L 719.0 225.0 L 715.0 220.0 L 699.0 214.0 L 706.0 210.0 L 700.0 211.0 L 699.0 210.0 L 702.0 208.0 L 712.0 208.0 L 713.0 207.0 L 716.0 208.0 L 716.0 207.0 L 711.0 205.0 L 701.0 205.0 L 700.0 204.0 L 702.0 201.0 L 709.0 198.0 L 709.0 197.0 L 703.0 199.0 L 702.0 198.0 L 704.0 196.0 L 712.0 194.0 L 712.0 193.0 L 709.0 193.0 L 705.0 195.0 L 703.0 194.0 L 707.0 191.0 L 707.0 190.0 L 704.0 191.0 L 703.0 190.0 L 704.0 186.0 L 706.0 184.0 L 712.0 182.0 L 711.0 181.0 L 708.0 182.0 L 704.0 181.0 L 706.0 171.0 L 711.0 167.0 L 707.0 165.0 L 707.0 157.0 L 714.0 139.0 L 714.0 136.0 L 709.0 147.0 L 708.0 144.0 L 710.0 136.0 L 710.0 118.0 L 708.0 129.0 L 704.0 141.0 L 702.0 143.0 L 701.0 142.0 L 702.0 140.0 L 702.0 133.0 L 701.0 133.0 L 698.0 149.0 L 697.0 150.0 L 696.0 149.0 L 696.0 143.0 L 694.0 151.0 L 687.0 162.0 L 668.0 182.0 L 634.0 208.0 L 626.0 212.0 L 612.0 211.0 L 608.0 208.0 L 606.0 203.0 L 602.0 206.0 L 592.0 205.0 L 586.0 203.0 L 578.0 196.0 L 565.0 178.0 L 550.0 150.0 L 539.0 136.0 L 533.0 122.0 L 522.0 105.0 L 516.0 98.0 L 511.0 89.0 L 517.0 106.0 L 517.0 113.0 L 516.0 114.0 L 510.0 103.0 Z
    M 644.0 546.0 L 645.0 547.0 L 644.0 550.0 L 643.0 549.0 Z
    M 635.0 499.0 L 636.0 498.0 L 637.0 500.0 L 636.0 501.0 Z
    M 634.0 497.0 L 635.0 496.0 L 636.0 498.0 L 635.0 499.0 Z
    M 627.0 490.0 L 628.0 489.0 L 629.0 490.0 L 628.0 491.0 Z
    M 626.0 489.0 L 627.0 488.0 L 628.0 489.0 L 627.0 490.0 Z
    M 616.0 465.0 L 617.0 464.0 L 618.0 465.0 L 617.0 466.0 Z
    M 611.0 455.0 L 617.0 475.0 L 627.0 487.0 L 626.0 489.0 L 616.0 480.0 L 610.0 462.0 L 610.0 456.0 Z
    M 713.0 450.0 L 714.0 449.0 L 715.0 450.0 L 714.0 451.0 Z
    M 616.0 447.0 L 617.0 448.0 L 617.0 459.0 L 616.0 460.0 L 615.0 459.0 L 615.0 448.0 Z
    M 709.0 446.0 L 710.0 445.0 L 711.0 446.0 L 710.0 447.0 Z
    M 610.0 445.0 L 611.0 446.0 L 611.0 454.0 L 610.0 455.0 L 609.0 454.0 L 609.0 446.0 Z
    M 708.0 444.0 L 709.0 443.0 L 710.0 445.0 L 709.0 446.0 Z
    M 711.0 441.0 L 712.0 440.0 L 713.0 441.0 L 712.0 442.0 Z
    M 710.0 440.0 L 711.0 439.0 L 712.0 440.0 L 711.0 441.0 Z
    M 612.0 437.0 L 613.0 440.0 L 611.0 446.0 L 610.0 445.0 L 610.0 440.0 Z
    M 612.0 436.0 L 613.0 435.0 L 614.0 437.0 L 613.0 438.0 Z
    M 686.0 429.0 L 687.0 428.0 L 688.0 429.0 L 687.0 430.0 Z
    M 620.0 425.0 L 621.0 427.0 L 619.0 429.0 L 618.0 427.0 Z
    M 699.0 424.0 L 701.0 422.0 L 702.0 423.0 L 701.0 425.0 Z
    M 628.0 422.0 L 629.0 423.0 L 620.0 439.0 L 617.0 448.0 L 616.0 443.0 L 622.0 428.0 Z
    M 704.0 422.0 L 705.0 421.0 L 706.0 422.0 L 705.0 423.0 Z
    M 628.0 422.0 L 629.0 421.0 L 630.0 422.0 L 629.0 423.0 Z
    M 623.0 421.0 L 624.0 423.0 L 621.0 426.0 L 620.0 424.0 Z
    M 701.0 421.0 L 702.0 420.0 L 703.0 422.0 L 702.0 423.0 Z
    M 629.0 421.0 L 630.0 420.0 L 631.0 421.0 L 630.0 422.0 Z
    M 705.0 420.0 L 706.0 419.0 L 707.0 421.0 L 706.0 422.0 Z
    M 624.0 419.0 L 625.0 418.0 L 626.0 419.0 L 625.0 420.0 Z
    M 620.0 418.0 L 621.0 420.0 L 612.0 433.0 L 611.0 431.0 L 615.0 423.0 Z
    M 620.0 418.0 L 621.0 417.0 L 622.0 418.0 L 621.0 419.0 Z
    M 621.0 417.0 L 622.0 416.0 L 623.0 417.0 L 622.0 418.0 Z
    M 622.0 416.0 L 623.0 415.0 L 624.0 416.0 L 623.0 417.0 Z
    M 608.0 411.0 L 609.0 410.0 L 610.0 411.0 L 609.0 412.0 Z
    M 609.0 409.0 L 610.0 408.0 L 611.0 409.0 L 610.0 410.0 Z
    M 604.0 408.0 L 605.0 407.0 L 606.0 408.0 L 605.0 409.0 Z
    M 605.0 407.0 L 606.0 406.0 L 607.0 407.0 L 606.0 408.0 Z
    M 606.0 406.0 L 607.0 405.0 L 608.0 406.0 L 607.0 407.0 Z
    M 663.0 404.0 L 664.0 406.0 L 661.0 410.0 L 658.0 418.0 L 656.0 420.0 L 652.0 420.0 L 650.0 417.0 L 655.0 411.0 L 656.0 408.0 L 660.0 404.0 Z
    M 607.0 405.0 L 608.0 404.0 L 609.0 405.0 L 608.0 406.0 Z
    M 658.0 405.0 L 647.0 419.0 L 642.0 418.0 L 639.0 416.0 L 652.0 403.0 L 655.0 403.0 Z
    M 651.0 402.0 L 638.0 415.0 L 636.0 415.0 L 634.0 413.0 L 648.0 401.0 Z
    M 621.0 401.0 L 622.0 400.0 L 623.0 401.0 L 622.0 402.0 Z
    M 601.0 403.0 L 603.0 400.0 L 605.0 401.0 L 602.0 404.0 Z
    M 646.0 401.0 L 633.0 412.0 L 630.0 410.0 L 643.0 399.0 Z
    M 604.0 400.0 L 605.0 399.0 L 607.0 400.0 L 606.0 401.0 Z
    M 606.0 399.0 L 607.0 398.0 L 609.0 399.0 L 608.0 400.0 Z
    M 643.0 398.0 L 627.0 410.0 L 626.0 408.0 L 639.0 398.0 L 632.0 402.0 L 625.0 408.0 L 623.0 408.0 L 621.0 406.0 L 637.0 395.0 L 641.0 396.0 Z
    M 614.0 396.0 L 615.0 395.0 L 616.0 396.0 L 615.0 397.0 Z
    M 644.0 395.0 L 645.0 394.0 L 646.0 395.0 L 645.0 396.0 Z
    M 615.0 395.0 L 616.0 394.0 L 619.0 395.0 L 618.0 396.0 Z
    M 645.0 394.0 L 646.0 393.0 L 647.0 394.0 L 646.0 395.0 Z
    M 636.0 394.0 L 628.0 400.0 L 625.0 401.0 L 622.0 400.0 L 632.0 393.0 Z
    M 622.0 394.0 L 623.0 393.0 L 625.0 394.0 L 624.0 395.0 Z
    M 618.0 394.0 L 619.0 393.0 L 620.0 394.0 L 619.0 395.0 Z
    M 646.0 393.0 L 647.0 392.0 L 648.0 393.0 L 647.0 394.0 Z
    M 735.0 390.0 L 736.0 389.0 L 739.0 392.0 L 737.0 393.0 Z
    M 661.0 389.0 L 662.0 390.0 L 658.0 393.0 L 659.0 395.0 L 653.0 400.0 L 650.0 399.0 L 651.0 396.0 L 647.0 395.0 Z
    M 632.0 390.0 L 631.0 392.0 L 627.0 394.0 L 624.0 393.0 L 630.0 389.0 Z
    M 634.0 386.0 L 635.0 385.0 L 637.0 386.0 L 636.0 387.0 Z
    M 630.0 387.0 L 627.0 390.0 L 618.0 391.0 L 602.0 400.0 L 599.0 397.0 L 617.0 388.0 L 628.0 385.0 Z
    M 636.0 385.0 L 637.0 384.0 L 639.0 385.0 L 638.0 386.0 Z
    M 632.0 384.0 L 633.0 383.0 L 634.0 384.0 L 633.0 385.0 Z
    M 717.0 383.0 L 718.0 382.0 L 719.0 383.0 L 718.0 384.0 Z
    M 638.0 384.0 L 640.0 382.0 L 643.0 383.0 L 640.0 385.0 Z
    M 633.0 383.0 L 637.0 381.0 L 640.0 382.0 L 637.0 384.0 Z
    M 718.0 381.0 L 719.0 380.0 L 720.0 382.0 L 719.0 383.0 Z
    M 640.0 381.0 L 641.0 380.0 L 642.0 381.0 L 641.0 382.0 Z
    M 719.0 378.0 L 720.0 377.0 L 721.0 379.0 L 720.0 380.0 Z
    M 653.0 378.0 L 644.0 383.0 L 642.0 382.0 L 646.0 378.0 L 649.0 377.0 Z
    M 652.0 377.0 L 653.0 376.0 L 657.0 377.0 L 656.0 378.0 Z
    M 646.0 376.0 L 635.0 380.0 L 632.0 379.0 L 634.0 376.0 L 640.0 376.0 L 641.0 375.0 Z
    M 624.0 375.0 L 623.0 378.0 L 607.0 380.0 L 593.0 385.0 L 592.0 384.0 L 592.0 379.0 L 596.0 377.0 L 612.0 374.0 L 623.0 374.0 Z
    M 733.0 362.0 L 736.0 369.0 L 735.0 379.0 L 733.0 388.0 L 728.0 397.0 L 726.0 398.0 L 721.0 387.0 L 720.0 381.0 L 725.0 376.0 L 726.0 372.0 Z
    M 631.0 362.0 L 632.0 361.0 L 634.0 362.0 L 633.0 363.0 Z
    M 635.0 361.0 L 636.0 360.0 L 637.0 361.0 L 636.0 362.0 Z
    M 724.0 356.0 L 725.0 357.0 L 724.0 361.0 L 723.0 360.0 Z
    M 725.0 349.0 L 726.0 350.0 L 725.0 355.0 L 724.0 354.0 Z
    M 732.0 348.0 L 733.0 349.0 L 732.0 352.0 L 731.0 351.0 Z
    M 713.0 347.0 L 714.0 345.0 L 716.0 346.0 L 714.0 348.0 Z
    M 729.0 332.0 L 730.0 331.0 L 731.0 332.0 L 730.0 333.0 Z
    M 721.0 329.0 L 722.0 328.0 L 723.0 329.0 L 722.0 330.0 Z
    M 720.0 328.0 L 721.0 327.0 L 722.0 328.0 L 721.0 329.0 Z
    M 719.0 327.0 L 720.0 326.0 L 721.0 327.0 L 720.0 328.0 Z
    M 715.0 324.0 L 716.0 323.0 L 717.0 324.0 L 716.0 325.0 Z
    M 714.0 323.0 L 715.0 322.0 L 716.0 323.0 L 715.0 324.0 Z
    M 713.0 322.0 L 714.0 321.0 L 715.0 322.0 L 714.0 323.0 Z
    M 711.0 321.0 L 712.0 320.0 L 713.0 321.0 L 712.0 322.0 Z
    M 709.0 320.0 L 710.0 319.0 L 712.0 320.0 L 711.0 321.0 Z
    M 707.0 319.0 L 708.0 318.0 L 710.0 319.0 L 709.0 320.0 Z
    M 701.0 314.0 L 702.0 313.0 L 708.0 318.0 L 707.0 319.0 L 704.0 318.0 Z
    M 700.0 313.0 L 701.0 312.0 L 702.0 313.0 L 701.0 314.0 Z
    M 701.0 312.0 L 702.0 311.0 L 703.0 312.0 L 702.0 313.0 Z
    M 710.0 311.0 L 711.0 310.0 L 712.0 311.0 L 711.0 312.0 Z
    M 709.0 310.0 L 710.0 309.0 L 711.0 310.0 L 710.0 311.0 Z
    M 706.0 310.0 L 707.0 309.0 L 708.0 310.0 L 707.0 311.0 Z
    M 698.0 301.0 L 699.0 300.0 L 700.0 301.0 L 699.0 302.0 Z
    M 697.0 298.0 L 698.0 297.0 L 699.0 299.0 L 698.0 300.0 Z
    M 696.0 295.0 L 697.0 294.0 L 698.0 295.0 L 697.0 296.0 Z
    M 473.0 278.0 L 474.0 277.0 L 475.0 278.0 L 474.0 279.0 Z
    M 633.0 275.0 L 634.0 274.0 L 636.0 275.0 L 635.0 276.0 Z
    M 705.0 262.0 L 706.0 261.0 L 707.0 263.0 L 706.0 264.0 Z
    M 704.0 261.0 L 705.0 260.0 L 706.0 261.0 L 705.0 262.0 Z
    M 703.0 259.0 L 704.0 258.0 L 705.0 260.0 L 704.0 261.0 Z
    M 639.0 258.0 L 640.0 257.0 L 641.0 258.0 L 640.0 259.0 Z
    M 638.0 257.0 L 639.0 256.0 L 640.0 257.0 L 639.0 258.0 Z
    M 639.0 253.0 L 640.0 252.0 L 641.0 253.0 L 640.0 254.0 Z
    M 472.0 243.0 L 473.0 242.0 L 474.0 243.0 L 473.0 244.0 Z
    M 693.0 221.0 L 694.0 220.0 L 695.0 221.0 L 694.0 222.0 Z
    M 629.0 216.0 L 645.0 219.0 L 648.0 221.0 L 647.0 230.0 L 645.0 234.0 L 642.0 228.0 L 641.0 229.0 L 645.0 237.0 L 645.0 243.0 L 644.0 244.0 L 640.0 234.0 L 633.0 223.0 L 628.0 217.0 Z
    M 698.0 215.0 L 699.0 214.0 L 705.0 217.0 L 699.0 219.0 Z
    M 608.0 215.0 L 609.0 214.0 L 610.0 215.0 L 609.0 216.0 Z
    M 486.0 212.0 L 487.0 213.0 L 486.0 217.0 L 485.0 216.0 Z
    M 704.0 206.0 L 705.0 205.0 L 708.0 206.0 L 707.0 207.0 Z
    M 585.0 206.0 L 586.0 205.0 L 587.0 206.0 L 586.0 207.0 Z
    M 655.0 200.0 L 656.0 201.0 L 655.0 204.0 L 654.0 203.0 Z
    M 698.0 196.0 L 699.0 195.0 L 700.0 196.0 L 699.0 197.0 Z
    M 573.0 196.0 L 574.0 195.0 L 575.0 196.0 L 574.0 197.0 Z
    M 702.0 195.0 L 703.0 194.0 L 704.0 195.0 L 703.0 196.0 Z
    M 658.0 195.0 L 656.0 200.0 L 655.0 199.0 L 653.0 202.0 L 648.0 217.0 L 632.0 213.0 L 652.0 197.0 L 657.0 194.0 Z
    M 699.0 190.0 L 700.0 189.0 L 701.0 190.0 L 700.0 191.0 Z
    M 703.0 162.0 L 705.0 166.0 L 701.0 170.0 L 698.0 178.0 L 694.0 183.0 L 696.0 182.0 L 699.0 176.0 L 703.0 172.0 L 704.0 173.0 L 703.0 178.0 L 696.0 185.0 L 693.0 186.0 L 691.0 189.0 L 701.0 182.0 L 702.0 185.0 L 688.0 193.0 L 688.0 194.0 L 690.0 194.0 L 697.0 190.0 L 699.0 190.0 L 700.0 192.0 L 683.0 203.0 L 697.0 196.0 L 699.0 198.0 L 696.0 201.0 L 687.0 204.0 L 681.0 208.0 L 697.0 202.0 L 698.0 203.0 L 697.0 206.0 L 686.0 210.0 L 683.0 210.0 L 681.0 212.0 L 686.0 212.0 L 689.0 210.0 L 694.0 210.0 L 695.0 209.0 L 697.0 211.0 L 695.0 213.0 L 679.0 217.0 L 679.0 218.0 L 680.0 217.0 L 685.0 217.0 L 690.0 215.0 L 695.0 216.0 L 693.0 219.0 L 682.0 223.0 L 682.0 224.0 L 684.0 224.0 L 691.0 221.0 L 694.0 222.0 L 694.0 225.0 L 689.0 227.0 L 693.0 228.0 L 694.0 230.0 L 693.0 231.0 L 688.0 230.0 L 695.0 235.0 L 694.0 237.0 L 691.0 237.0 L 695.0 239.0 L 694.0 242.0 L 695.0 243.0 L 693.0 244.0 L 676.0 229.0 L 669.0 225.0 L 672.0 224.0 L 673.0 211.0 L 680.0 196.0 Z
    M 701.0 153.0 L 702.0 156.0 L 698.0 165.0 L 682.0 189.0 L 671.0 209.0 L 670.0 224.0 L 668.0 225.0 L 661.0 221.0 L 651.0 218.0 L 650.0 217.0 L 650.0 212.0 L 652.0 206.0 L 654.0 203.0 L 655.0 204.0 L 653.0 215.0 L 654.0 215.0 L 656.0 201.0 L 661.0 192.0 L 693.0 159.0 Z
    M 695.0 151.0 L 696.0 150.0 L 697.0 151.0 L 696.0 152.0 Z
    M 502.0 138.0 L 503.0 137.0 L 504.0 138.0 L 503.0 139.0 Z
    M 530.0 130.0 L 531.0 129.0 L 532.0 130.0 L 531.0 131.0 Z
    M 506.0 125.0 L 507.0 124.0 L 508.0 125.0 L 507.0 126.0 Z
    M 500.0 124.0 L 501.0 125.0 L 500.0 128.0 L 499.0 127.0 Z
    M 505.0 121.0 L 506.0 120.0 L 507.0 122.0 L 506.0 123.0 Z
    M 523.0 116.0 L 524.0 115.0 L 525.0 117.0 L 524.0 118.0 Z
    M 513.0 116.0 L 514.0 115.0 L 515.0 117.0 L 514.0 118.0 Z
    M 505.0 115.0 L 506.0 116.0 L 505.0 119.0 L 504.0 118.0 Z
    M 503.0 137.0 L 506.0 130.0 L 513.0 125.0 L 512.0 123.0 L 512.0 125.0 L 511.0 126.0 L 510.0 125.0 L 510.0 116.0 L 509.0 115.0 L 510.0 112.0 L 512.0 114.0 L 513.0 118.0 L 515.0 117.0 L 519.0 123.0 L 521.0 124.0 L 523.0 123.0 L 531.0 129.0 L 530.0 130.0 L 527.0 129.0 L 513.0 129.0 L 504.0 138.0 Z
    M 508.0 111.0 L 509.0 110.0 L 510.0 112.0 L 509.0 113.0 Z
    M 518.0 103.0 L 524.0 113.0 L 523.0 116.0 L 517.0 106.0 Z
    M 516.0 102.0 L 517.0 101.0 L 518.0 103.0 L 517.0 104.0 Z
  " fill="#c8b77c" fill-rule="evenodd"/>
</svg>
